<svg id="visual" viewBox="0 0 900 600" width="900" height="600" xmlns="http://www.w3.org/2000/svg" xmlns:xlink="http://www.w3.org/1999/xlink" version="1.1"><path d="M0 25L39 25L39 37L78 37L78 31L117 31L117 13L157 13L157 31L196 31L196 19L235 19L235 25L274 25L274 31L313 31L313 37L352 37L352 13L391 13L391 13L430 13L430 25L470 25L470 43L509 43L509 31L548 31L548 25L587 25L587 25L626 25L626 25L665 25L665 43L704 43L704 31L743 31L743 31L783 31L783 25L822 25L822 25L861 25L861 31L900 31L900 31L900 0L900 0L861 0L861 0L822 0L822 0L783 0L783 0L743 0L743 0L704 0L704 0L665 0L665 0L626 0L626 0L587 0L587 0L548 0L548 0L509 0L509 0L470 0L470 0L430 0L430 0L391 0L391 0L352 0L352 0L313 0L313 0L274 0L274 0L235 0L235 0L196 0L196 0L157 0L157 0L117 0L117 0L78 0L78 0L39 0L39 0L0 0Z" fill="#fa7268"></path><path d="M0 61L39 61L39 97L78 97L78 73L117 73L117 37L157 37L157 85L196 85L196 61L235 61L235 61L274 61L274 49L313 49L313 49L352 49L352 61L391 61L391 31L430 31L430 49L470 49L470 67L509 67L509 103L548 103L548 43L587 43L587 67L626 67L626 55L665 55L665 61L704 61L704 49L743 49L743 67L783 67L783 79L822 79L822 73L861 73L861 61L900 61L900 67L900 29L900 29L861 29L861 23L822 23L822 23L783 23L783 29L743 29L743 29L704 29L704 41L665 41L665 23L626 23L626 23L587 23L587 23L548 23L548 29L509 29L509 41L470 41L470 23L430 23L430 11L391 11L391 11L352 11L352 35L313 35L313 29L274 29L274 23L235 23L235 17L196 17L196 29L157 29L157 11L117 11L117 29L78 29L78 35L39 35L39 23L0 23Z" fill="#f36967"></path><path d="M0 109L39 109L39 121L78 121L78 175L117 175L117 115L157 115L157 127L196 127L196 115L235 115L235 97L274 97L274 85L313 85L313 97L352 97L352 163L391 163L391 85L430 85L430 91L470 91L470 163L509 163L509 157L548 157L548 163L587 163L587 175L626 175L626 151L665 151L665 139L704 139L704 121L743 121L743 121L783 121L783 199L822 199L822 133L861 133L861 91L900 91L900 97L900 65L900 59L861 59L861 71L822 71L822 77L783 77L783 65L743 65L743 47L704 47L704 59L665 59L665 53L626 53L626 65L587 65L587 41L548 41L548 101L509 101L509 65L470 65L470 47L430 47L430 29L391 29L391 59L352 59L352 47L313 47L313 47L274 47L274 59L235 59L235 59L196 59L196 83L157 83L157 35L117 35L117 71L78 71L78 95L39 95L39 59L0 59Z" fill="#ec6066"></path><path d="M0 139L39 139L39 133L78 133L78 193L117 193L117 145L157 145L157 151L196 151L196 127L235 127L235 127L274 127L274 103L313 103L313 139L352 139L352 211L391 211L391 109L430 109L430 115L470 115L470 175L509 175L509 175L548 175L548 211L587 211L587 199L626 199L626 163L665 163L665 181L704 181L704 139L743 139L743 133L783 133L783 223L822 223L822 169L861 169L861 115L900 115L900 133L900 95L900 89L861 89L861 131L822 131L822 197L783 197L783 119L743 119L743 119L704 119L704 137L665 137L665 149L626 149L626 173L587 173L587 161L548 161L548 155L509 155L509 161L470 161L470 89L430 89L430 83L391 83L391 161L352 161L352 95L313 95L313 83L274 83L274 95L235 95L235 113L196 113L196 125L157 125L157 113L117 113L117 173L78 173L78 119L39 119L39 107L0 107Z" fill="#e45765"></path><path d="M0 163L39 163L39 175L78 175L78 247L117 247L117 157L157 157L157 199L196 199L196 151L235 151L235 169L274 169L274 127L313 127L313 181L352 181L352 259L391 259L391 151L430 151L430 127L470 127L470 217L509 217L509 187L548 187L548 235L587 235L587 229L626 229L626 205L665 205L665 229L704 229L704 187L743 187L743 151L783 151L783 271L822 271L822 193L861 193L861 169L900 169L900 151L900 131L900 113L861 113L861 167L822 167L822 221L783 221L783 131L743 131L743 137L704 137L704 179L665 179L665 161L626 161L626 197L587 197L587 209L548 209L548 173L509 173L509 173L470 173L470 113L430 113L430 107L391 107L391 209L352 209L352 137L313 137L313 101L274 101L274 125L235 125L235 125L196 125L196 149L157 149L157 143L117 143L117 191L78 191L78 131L39 131L39 137L0 137Z" fill="#dc4e64"></path><path d="M0 349L39 349L39 241L78 241L78 343L117 343L117 241L157 241L157 259L196 259L196 403L235 403L235 373L274 373L274 379L313 379L313 373L352 373L352 427L391 427L391 253L430 253L430 259L470 259L470 343L509 343L509 289L548 289L548 415L587 415L587 397L626 397L626 379L665 379L665 349L704 349L704 313L743 313L743 325L783 325L783 373L822 373L822 259L861 259L861 391L900 391L900 385L900 149L900 167L861 167L861 191L822 191L822 269L783 269L783 149L743 149L743 185L704 185L704 227L665 227L665 203L626 203L626 227L587 227L587 233L548 233L548 185L509 185L509 215L470 215L470 125L430 125L430 149L391 149L391 257L352 257L352 179L313 179L313 125L274 125L274 167L235 167L235 149L196 149L196 197L157 197L157 155L117 155L117 245L78 245L78 173L39 173L39 161L0 161Z" fill="#d44663"></path><path d="M0 415L39 415L39 301L78 301L78 391L117 391L117 343L157 343L157 337L196 337L196 457L235 457L235 421L274 421L274 403L313 403L313 457L352 457L352 493L391 493L391 337L430 337L430 361L470 361L470 409L509 409L509 355L548 355L548 439L587 439L587 433L626 433L626 457L665 457L665 433L704 433L704 397L743 397L743 415L783 415L783 403L822 403L822 295L861 295L861 457L900 457L900 433L900 383L900 389L861 389L861 257L822 257L822 371L783 371L783 323L743 323L743 311L704 311L704 347L665 347L665 377L626 377L626 395L587 395L587 413L548 413L548 287L509 287L509 341L470 341L470 257L430 257L430 251L391 251L391 425L352 425L352 371L313 371L313 377L274 377L274 371L235 371L235 401L196 401L196 257L157 257L157 239L117 239L117 341L78 341L78 239L39 239L39 347L0 347Z" fill="#cb3d62"></path><path d="M0 499L39 499L39 349L78 349L78 445L117 445L117 421L157 421L157 361L196 361L196 493L235 493L235 463L274 463L274 421L313 421L313 481L352 481L352 529L391 529L391 415L430 415L430 385L470 385L470 469L509 469L509 433L548 433L548 487L587 487L587 493L626 493L626 505L665 505L665 481L704 481L704 427L743 427L743 481L783 481L783 463L822 463L822 367L861 367L861 505L900 505L900 493L900 431L900 455L861 455L861 293L822 293L822 401L783 401L783 413L743 413L743 395L704 395L704 431L665 431L665 455L626 455L626 431L587 431L587 437L548 437L548 353L509 353L509 407L470 407L470 359L430 359L430 335L391 335L391 491L352 491L352 455L313 455L313 401L274 401L274 419L235 419L235 455L196 455L196 335L157 335L157 341L117 341L117 389L78 389L78 299L39 299L39 413L0 413Z" fill="#c23561"></path><path d="M0 535L39 535L39 409L78 409L78 493L117 493L117 445L157 445L157 397L196 397L196 523L235 523L235 487L274 487L274 475L313 475L313 529L352 529L352 565L391 565L391 451L430 451L430 409L470 409L470 487L509 487L509 463L548 463L548 511L587 511L587 523L626 523L626 535L665 535L665 499L704 499L704 481L743 481L743 523L783 523L783 487L822 487L822 385L861 385L861 523L900 523L900 517L900 491L900 503L861 503L861 365L822 365L822 461L783 461L783 479L743 479L743 425L704 425L704 479L665 479L665 503L626 503L626 491L587 491L587 485L548 485L548 431L509 431L509 467L470 467L470 383L430 383L430 413L391 413L391 527L352 527L352 479L313 479L313 419L274 419L274 461L235 461L235 491L196 491L196 359L157 359L157 419L117 419L117 443L78 443L78 347L39 347L39 497L0 497Z" fill="#b92c60"></path><path d="M0 601L39 601L39 601L78 601L78 601L117 601L117 601L157 601L157 601L196 601L196 601L235 601L235 601L274 601L274 601L313 601L313 601L352 601L352 601L391 601L391 601L430 601L430 601L470 601L470 601L509 601L509 601L548 601L548 601L587 601L587 601L626 601L626 601L665 601L665 601L704 601L704 601L743 601L743 601L783 601L783 601L822 601L822 601L861 601L861 601L900 601L900 601L900 515L900 521L861 521L861 383L822 383L822 485L783 485L783 521L743 521L743 479L704 479L704 497L665 497L665 533L626 533L626 521L587 521L587 509L548 509L548 461L509 461L509 485L470 485L470 407L430 407L430 449L391 449L391 563L352 563L352 527L313 527L313 473L274 473L274 485L235 485L235 521L196 521L196 395L157 395L157 443L117 443L117 491L78 491L78 407L39 407L39 533L0 533Z" fill="#b0235f"></path></svg>